# xmcd
# 
# Track frame offsets:
#     150
#     16277
#     30433
#     46088
#     62520
#     79430
#     94888
#     110514
#     125630
#     141250
#     160338
#     177639
# 
# Disc length: 2605
# 
# Revision: 0
# Processed by: cddbd v1.5.2PL0 Copyright (c) Steve Scherf et al.
# Submitted via: fre:ac v1.0.31
# 
DISCID=a10a2b0c
DTITLE=ちあきなおみ - Best☆Best
DYEAR=2000
DGENRE=昭和歌謡
TTITLE0=喝采
TTITLE1=劇場
TTITLE2=夜間飛行
TTITLE3=雨に濡れた慕情
TTITLE4=朝がくるまえに
TTITLE5=別れたあとで
TTITLE6=四つのお願い
TTITLE7=X+Y=LOVE
TTITLE8=円舞曲
TTITLE9=酒場川
TTITLE10=さだめ川
TTITLE11=矢切の渡し
EXTD=
EXTT0=
EXTT1=
EXTT2=
EXTT3=
EXTT4=
EXTT5=
EXTT6=
EXTT7=
EXTT8=
EXTT9=
EXTT10=
EXTT11=
PLAYORDER=
